<svg xmlns="http://www.w3.org/2000/svg" viewBox="0 0 512 512" width="512" height="512">
  <defs>
    <linearGradient id="g" x1="0%" y1="0%" x2="100%" y2="100%">
      <stop offset="0%" stop-color="#6366f1"/>
      <stop offset="100%" stop-color="#9333ea"/>
    </linearGradient>
  </defs>
  <!-- Rounded square matching app logo proportions (rounded-xl) -->
  <rect width="512" height="512" rx="115" fill="url(#g)"/>
  <!-- Lucide GraduationCap icon, scaled to 300x300 centered in 512x512 -->
  <g transform="translate(106, 106) scale(12.5)" stroke="white" stroke-linecap="round" stroke-linejoin="round" fill="none" stroke-width="2">
    <path d="M21.42 10.922a1 1 0 0 0-.019-1.838L12.83 5.18a2 2 0 0 0-1.66 0L2.6 9.08a1 1 0 0 0 0 1.832l8.57 3.908a2 2 0 0 0 1.66 0z"/>
    <path d="M22 10v6"/>
    <path d="M6 12.5V16a6 3 0 0 0 12 0v-3.5"/>
  </g>
</svg>
